<svg width="123" height="43" viewBox="0 0 123 43" fill="none" xmlns="http://www.w3.org/2000/svg">
<circle cx="21.5" cy="21.5" r="21.5" fill="#C4C4C4"/>
<path d="M56.5742 15.1953C56.1914 15.1953 55.8672 15.332 55.6016 15.6055C55.3281 15.8711 55.1914 16.1953 55.1914 16.5781V30.6172C55.1914 31 55.3281 31.3242 55.6016 31.5898C55.8672 31.8633 56.1914 32 56.5742 32H64.1562C64.5391 32 64.8672 31.8633 65.1406 31.5898C65.4062 31.3242 65.5391 31 65.5391 30.6172C65.5391 30.2344 65.4062 29.9102 65.1406 29.6445C64.8672 29.3711 64.5391 29.2344 64.1562 29.2344H57.957V16.5781C57.957 16.1953 57.8203 15.8711 57.5469 15.6055C57.2812 15.332 56.957 15.1953 56.5742 15.1953Z" fill="white"/>
<path d="M75.9336 17.9375C77.4883 17.9375 78.8203 18.4883 79.9297 19.5898C81.0312 20.6992 81.582 22.0312 81.582 23.5859C81.582 25.1406 81.0312 26.4688 79.9297 27.5703C78.8203 28.6797 77.4883 29.2344 75.9336 29.2344C74.3789 29.2344 73.0508 28.6797 71.9492 27.5703C70.8398 26.4688 70.2852 25.1406 70.2852 23.5859C70.2852 22.0312 70.8398 20.6992 71.9492 19.5898C73.0508 18.4883 74.3789 17.9375 75.9336 17.9375ZM75.9336 32C78.2539 32 80.2383 31.1758 81.8867 29.5273C83.5273 27.8867 84.3477 25.9062 84.3477 23.5859C84.3477 21.2656 83.5273 19.2812 81.8867 17.6328C80.2383 15.9922 78.2539 15.1719 75.9336 15.1719C73.6133 15.1719 71.6328 15.9922 69.9922 17.6328C68.3438 19.2812 67.5195 21.2656 67.5195 23.5859C67.5195 25.9062 68.3438 27.8867 69.9922 29.5273C71.6328 31.1758 73.6133 32 75.9336 32Z" fill="white"/>
<path d="M95.8672 31.9531C97.2422 31.9531 98.543 31.6328 99.7695 30.9922C99.8477 31.2812 100.008 31.5195 100.25 31.707C100.5 31.9023 100.781 32 101.094 32H101.105C101.488 32 101.812 31.8633 102.078 31.5898C102.352 31.3242 102.488 31 102.488 30.6172L102.523 23.1875C102.523 22.8047 102.387 22.4766 102.113 22.2031C101.84 21.9297 101.512 21.793 101.129 21.793H95.1523C94.7617 21.793 94.4336 21.9297 94.168 22.2031C93.8945 22.4766 93.7578 22.8047 93.7578 23.1875C93.7578 23.5703 93.8945 23.8984 94.168 24.1719C94.4336 24.4375 94.7617 24.5703 95.1523 24.5703H99.7344L99.7227 27.6406C99.6836 27.6719 99.6562 27.6953 99.6406 27.7109C98.5703 28.6875 97.3125 29.1758 95.8672 29.1758C94.3203 29.1758 92.9961 28.6289 91.8945 27.5352C90.8008 26.4336 90.2539 25.1094 90.2539 23.5625C90.2539 22.0234 90.8008 20.7031 91.8945 19.6016C92.9961 18.5078 94.3203 17.9609 95.8672 17.9609C97.1328 17.9609 98.2695 18.3477 99.2773 19.1211C99.582 19.3555 99.9258 19.4453 100.309 19.3906C100.684 19.3438 100.988 19.168 101.223 18.8633C101.457 18.5586 101.551 18.2188 101.504 17.8438C101.449 17.4609 101.27 17.1523 100.965 16.918C99.4648 15.7617 97.7656 15.1836 95.8672 15.1836C93.5547 15.1836 91.5781 16.0039 89.9375 17.6445C88.2969 19.2773 87.4766 21.25 87.4766 23.5625C87.4766 25.875 88.2969 27.8516 89.9375 29.4922C91.5781 31.1328 93.5547 31.9531 95.8672 31.9531Z" fill="white"/>
<path d="M114.254 17.9375C115.809 17.9375 117.141 18.4883 118.25 19.5898C119.352 20.6992 119.902 22.0312 119.902 23.5859C119.902 25.1406 119.352 26.4688 118.25 27.5703C117.141 28.6797 115.809 29.2344 114.254 29.2344C112.699 29.2344 111.371 28.6797 110.27 27.5703C109.16 26.4688 108.605 25.1406 108.605 23.5859C108.605 22.0312 109.16 20.6992 110.27 19.5898C111.371 18.4883 112.699 17.9375 114.254 17.9375ZM114.254 32C116.574 32 118.559 31.1758 120.207 29.5273C121.848 27.8867 122.668 25.9062 122.668 23.5859C122.668 21.2656 121.848 19.2812 120.207 17.6328C118.559 15.9922 116.574 15.1719 114.254 15.1719C111.934 15.1719 109.953 15.9922 108.312 17.6328C106.664 19.2812 105.84 21.2656 105.84 23.5859C105.84 25.9062 106.664 27.8867 108.312 29.5273C109.953 31.1758 111.934 32 114.254 32Z" fill="white"/>
</svg>
