<svg width="114" height="40" viewBox="0 0 114 40" fill="none" xmlns="http://www.w3.org/2000/svg">
<circle cx="19.9484" cy="20.0516" r="19.9484" fill="#C4C4C4"/>
<path d="M52.4915 14.2019C52.1363 14.2019 51.8355 14.3288 51.5891 14.5825C51.3353 14.8289 51.2085 15.1298 51.2085 15.4849V28.5108C51.2085 28.866 51.3353 29.1668 51.5891 29.4133C51.8355 29.667 52.1363 29.7938 52.4915 29.7938H59.5264C59.8815 29.7938 60.186 29.667 60.4397 29.4133C60.6861 29.1668 60.8094 28.866 60.8094 28.5108C60.8094 28.1556 60.6861 27.8548 60.4397 27.6084C60.186 27.3546 59.8815 27.2278 59.5264 27.2278H53.7745V15.4849C53.7745 15.1298 53.6477 14.8289 53.394 14.5825C53.1475 14.3288 52.8467 14.2019 52.4915 14.2019Z" fill="white"/>
<path d="M70.4537 16.7462C71.8962 16.7462 73.1321 17.2572 74.1614 18.2793C75.1835 19.3086 75.6945 20.5445 75.6945 21.987C75.6945 23.4295 75.1835 24.6618 74.1614 25.6838C73.1321 26.7131 71.8962 27.2278 70.4537 27.2278C69.0113 27.2278 67.779 26.7131 66.7569 25.6838C65.7276 24.6618 65.2129 23.4295 65.2129 21.987C65.2129 20.5445 65.7276 19.3086 66.7569 18.2793C67.779 17.2572 69.0113 16.7462 70.4537 16.7462ZM70.4537 29.7938C72.6066 29.7938 74.4478 29.0291 75.9772 27.4996C77.4995 25.9774 78.2606 24.1399 78.2606 21.987C78.2606 19.8341 77.4995 17.993 75.9772 16.4635C74.4478 14.9413 72.6066 14.1802 70.4537 14.1802C68.3009 14.1802 66.4633 14.9413 64.9411 16.4635C63.4116 17.993 62.6469 19.8341 62.6469 21.987C62.6469 24.1399 63.4116 25.9774 64.9411 27.4996C66.4633 29.0291 68.3009 29.7938 70.4537 29.7938Z" fill="white"/>
<path d="M88.9487 29.7503C90.2245 29.7503 91.4314 29.4531 92.5695 28.8587C92.6419 29.127 92.7905 29.348 93.0153 29.522C93.2472 29.7032 93.5082 29.7938 93.7981 29.7938H93.809C94.1642 29.7938 94.465 29.667 94.7114 29.4133C94.9651 29.1668 95.092 28.866 95.092 28.5108L95.1246 21.6173C95.1246 21.2621 94.9978 20.9577 94.7441 20.704C94.4904 20.4503 94.1859 20.3234 93.8307 20.3234H88.2855C87.9231 20.3234 87.6186 20.4503 87.3722 20.704C87.1185 20.9577 86.9916 21.2621 86.9916 21.6173C86.9916 21.9725 87.1185 22.2769 87.3722 22.5307C87.6186 22.7771 87.9231 22.9003 88.2855 22.9003H92.5368L92.526 25.7491C92.4897 25.7781 92.4644 25.7998 92.4499 25.8143C91.4568 26.7204 90.2897 27.1734 88.9487 27.1734C87.5135 27.1734 86.2849 26.666 85.2628 25.6512C84.248 24.6291 83.7406 23.4005 83.7406 21.9653C83.7406 20.5373 84.248 19.3122 85.2628 18.2902C86.2849 17.2754 87.5135 16.768 88.9487 16.768C90.123 16.768 91.1777 17.1268 92.1128 17.8444C92.3955 18.0618 92.7144 18.1452 93.0696 18.0945C93.4176 18.051 93.7003 17.8879 93.9177 17.6052C94.1352 17.3225 94.2222 17.0072 94.1787 16.6592C94.1279 16.304 93.9612 16.0177 93.6785 15.8003C92.2868 14.7275 90.7102 14.191 88.9487 14.191C86.8031 14.191 84.9692 14.9522 83.447 16.4744C81.9248 17.9894 81.1637 19.8196 81.1637 21.9653C81.1637 24.1109 81.9248 25.9448 83.447 27.467C84.9692 28.9892 86.8031 29.7503 88.9487 29.7503Z" fill="white"/>
<path d="M106.009 16.7462C107.451 16.7462 108.687 17.2572 109.716 18.2793C110.738 19.3086 111.249 20.5445 111.249 21.987C111.249 23.4295 110.738 24.6618 109.716 25.6838C108.687 26.7131 107.451 27.2278 106.009 27.2278C104.566 27.2278 103.334 26.7131 102.312 25.6838C101.282 24.6618 100.768 23.4295 100.768 21.987C100.768 20.5445 101.282 19.3086 102.312 18.2793C103.334 17.2572 104.566 16.7462 106.009 16.7462ZM106.009 29.7938C108.161 29.7938 110.003 29.0291 111.532 27.4996C113.054 25.9774 113.815 24.1399 113.815 21.987C113.815 19.8341 113.054 17.993 111.532 16.4635C110.003 14.9413 108.161 14.1802 106.009 14.1802C103.856 14.1802 102.018 14.9413 100.496 16.4635C98.9664 17.993 98.2017 19.8341 98.2017 21.987C98.2017 24.1399 98.9664 25.9774 100.496 27.4996C102.018 29.0291 103.856 29.7938 106.009 29.7938Z" fill="white"/>
</svg>
