<svg width="50" height="50" viewBox="0 0 50 50" fill="none" xmlns="http://www.w3.org/2000/svg">
<path d="M35.9982 29.7446C35.5391 30.8158 34.9653 31.8869 34.3149 32.8433C33.2438 34.4883 31.7135 36.5541 29.8008 36.5541C28.1175 36.5541 27.6967 35.4447 25.4014 35.483C23.106 35.483 22.647 36.5924 20.9637 36.5541C19.0892 36.5541 17.6355 34.6796 16.5643 33.0346C13.5422 28.4439 13.2361 23.0117 15.0724 20.1808C16.22 18.268 18.2476 17.0821 20.4664 16.9673C22.4557 16.9673 23.7181 18.0767 25.4014 18.0767C27.0846 18.0767 28.0027 16.9673 30.2981 16.9673C32.2491 17.0438 34.0471 18.0002 35.233 19.5687C32.5169 21.0989 31.5605 24.5036 33.0907 27.2198C33.7793 28.4057 34.774 29.2856 35.9982 29.7446Z" fill="white"/>
<path d="M28.5777 15.0927C29.5341 13.945 29.9932 12.4148 29.8402 10.9229C28.3099 11.1141 26.8945 11.841 25.8998 13.0269C24.9052 14.1363 24.4461 15.6283 24.5992 17.082C26.1676 17.082 27.6213 16.3169 28.5777 15.0927Z" fill="white"/>
<rect x="0.5" y="0.5" width="49" height="49" rx="5.5" stroke="white"/>
</svg>
