<svg width="50" height="50" viewBox="0 0 50 50" fill="none" xmlns="http://www.w3.org/2000/svg">
<path d="M14.575 12.8154C14.2689 13.2362 14.0776 13.7336 14.0776 14.2691V35.5775C14.0776 36.0748 14.2307 36.5339 14.4984 36.9547L26.0899 24.8659L14.575 12.8154Z" fill="white"/>
<path d="M27.161 23.7567L30.9101 19.8164L17.6737 12.1653C17.0998 11.821 16.4495 11.7444 15.8374 11.9357L27.161 23.7567Z" fill="white"/>
<path d="M27.1606 25.9756L15.7222 37.8731C15.9517 37.9496 16.2195 37.9878 16.4873 37.9878C16.9081 37.9878 17.3289 37.8731 17.6732 37.6435L30.9861 29.9542L27.1606 25.9756Z" fill="white"/>
<path d="M36.1511 22.8385L32.2873 20.6196L28.2322 24.866L32.402 29.1889L36.1893 27.0083C36.9544 26.5875 37.4135 25.7841 37.4135 24.9042C37.337 24.0626 36.9162 23.2975 36.1511 22.8385Z" fill="white"/>
<rect x="0.5" y="0.5" width="49" height="49" rx="5.5" stroke="white"/>
</svg>
