<svg width="250" height="73" viewBox="0 0 250 73" fill="none" xmlns="http://www.w3.org/2000/svg">
<rect x="1" y="1" width="248" height="70.4206" rx="9" stroke="white" stroke-width="2"/>
<g clip-path="url(#clip0)">
<path fill-rule="evenodd" clip-rule="evenodd" d="M57.1705 34.7068C57.1176 28.7719 62.019 25.8836 62.2426 25.7494C59.467 21.6931 55.1647 21.1387 53.652 21.0936C50.0387 20.7133 46.5342 23.2614 44.6931 23.2614C42.815 23.2614 39.9804 21.1307 36.9252 21.1937C32.9944 21.2548 29.3161 23.5356 27.2993 27.0785C23.1368 34.3035 26.2409 44.9192 30.2297 50.7589C32.2246 53.6203 34.5559 56.8119 37.6071 56.6988C40.5925 56.5777 41.7077 54.7932 45.3101 54.7932C48.8795 54.7932 49.9269 56.6988 53.039 56.6277C56.243 56.5777 58.2598 53.7544 60.1848 50.869C62.4912 47.5933 63.4168 44.3627 63.4537 44.1976C63.3798 44.1715 57.2334 41.8186 57.1705 34.7068Z" fill="white"/>
<path fill-rule="evenodd" clip-rule="evenodd" d="M51.2917 17.2524C52.8972 15.2398 53.9964 12.5015 53.6909 9.72327C51.3676 9.82635 48.4611 11.3346 46.7867 13.3032C45.306 15.0376 43.9841 17.881 44.3256 20.5541C46.9355 20.7493 49.6163 19.2341 51.2917 17.2524Z" fill="white"/>
<path fill-rule="evenodd" clip-rule="evenodd" d="M100.41 56.2884H96.2384L93.953 49.0905H86.0094L83.8318 56.2884H79.7701L87.6418 31.7823H92.5032L100.41 56.2884ZM93.264 46.0701L91.1973 39.6708C90.9786 39.0173 90.5673 37.478 89.9642 35.054H89.8903C89.6487 36.0969 89.2603 37.6361 88.7301 39.6708L86.6983 46.0701H93.264Z" fill="white"/>
<path fill-rule="evenodd" clip-rule="evenodd" d="M120.614 47.236C120.614 50.2405 119.801 52.6165 118.171 54.3609C116.712 55.9132 114.899 56.6878 112.737 56.6878C110.402 56.6878 108.723 55.8541 107.703 54.1817V63.4533H103.787V44.4257C103.787 42.5382 103.737 40.6026 103.642 38.618H107.086L107.305 41.4183H107.378C108.684 39.3086 110.667 38.2527 113.327 38.2527C115.406 38.2527 117.143 39.0764 118.532 40.7247C119.918 42.3761 120.614 44.5458 120.614 47.236ZM116.625 47.3792C116.625 45.6598 116.238 44.2416 115.463 43.1237C114.617 41.9617 113.479 41.3802 112.054 41.3802C111.087 41.3802 110.21 41.7035 109.425 42.343C108.638 42.9876 108.124 43.8293 107.883 44.8711C107.762 45.3575 107.701 45.7538 107.701 46.0661V49.0145C107.701 50.2986 108.095 51.3824 108.881 52.2702C109.667 53.1539 110.689 53.5983 111.945 53.5983C113.421 53.5983 114.569 53.0258 115.389 51.8889C116.213 50.7489 116.625 49.2467 116.625 47.3792Z" fill="white"/>
<path fill-rule="evenodd" clip-rule="evenodd" d="M140.891 47.236C140.891 50.2405 140.077 52.6165 138.447 54.3609C136.987 55.9132 135.176 56.6878 133.011 56.6878C130.677 56.6878 128.997 55.8541 127.978 54.1817V63.4533H124.061V44.4257C124.061 42.5382 124.011 40.6026 123.916 38.618H127.36L127.578 41.4183H127.652C128.956 39.3086 130.939 38.2527 133.601 38.2527C135.679 38.2527 137.415 39.0764 138.807 40.7247C140.193 42.3761 140.891 44.5458 140.891 47.236ZM136.898 47.3792C136.898 45.6598 136.51 44.2416 135.736 43.1237C134.889 41.9617 133.755 41.3802 132.329 41.3802C131.363 41.3802 130.485 41.7035 129.697 42.343C128.91 42.9876 128.398 43.8293 128.158 44.8711C128.038 45.3575 127.974 45.7538 127.974 46.0661V49.0145C127.974 50.2986 128.369 51.3824 129.151 52.2702C129.938 53.1529 130.959 53.5983 132.219 53.5983C133.697 53.5983 134.844 53.0258 135.664 51.8889C136.486 50.7489 136.898 49.2467 136.898 47.3792Z" fill="white"/>
<path fill-rule="evenodd" clip-rule="evenodd" d="M163.56 49.4138C163.56 51.5005 162.832 53.1969 161.387 54.506C159.796 55.9352 157.574 56.6507 154.727 56.6507C152.097 56.6507 149.987 56.1433 148.397 55.1245L149.302 51.8518C151.02 52.8726 152.907 53.3811 154.961 53.3811C156.437 53.3811 157.585 53.0458 158.405 52.3802C159.226 51.7137 159.641 50.823 159.641 49.7111C159.641 48.7142 159.298 47.8806 158.624 47.201C157.946 46.5234 156.826 45.8919 155.251 45.3115C150.971 43.7111 148.828 41.3702 148.828 38.2917C148.828 36.2811 149.585 34.6347 151.096 33.3476C152.605 32.0616 154.608 31.4191 157.099 31.4191C159.324 31.4191 161.178 31.8084 162.649 32.583L161.666 35.7836C160.281 35.032 158.718 34.6567 156.968 34.6567C155.588 34.6567 154.503 34.997 153.728 35.6746C153.076 36.2811 152.745 37.0187 152.745 37.8954C152.745 38.8622 153.121 39.6658 153.871 40.2953C154.521 40.8748 155.708 41.5073 157.424 42.1849C159.529 43.0356 161.076 44.0264 162.066 45.1643C163.064 46.3023 163.56 47.7214 163.56 49.4138Z" fill="white"/>
<path fill-rule="evenodd" clip-rule="evenodd" d="M176.543 41.5643H172.226V50.1434C172.226 52.3251 172.986 53.414 174.511 53.414C175.211 53.414 175.791 53.355 176.25 53.2319L176.359 56.2133C175.587 56.5016 174.572 56.6477 173.313 56.6477C171.766 56.6477 170.557 56.1743 169.685 55.2275C168.816 54.2817 168.379 52.6954 168.379 50.4636V41.5563H165.807V38.6099H168.379V35.3753L172.226 34.2113V38.6099H176.543V41.5643Z" fill="white"/>
<path fill-rule="evenodd" clip-rule="evenodd" d="M195.983 47.3071C195.983 50.0233 195.208 52.2541 193.661 53.9976C192.043 55.793 189.889 56.6878 187.205 56.6878C184.615 56.6878 182.555 55.8281 181.02 54.1097C179.484 52.3882 178.716 50.2185 178.716 47.6023C178.716 44.8641 179.509 42.6212 181.092 40.8768C182.677 39.1314 184.812 38.2587 187.496 38.2587C190.083 38.2587 192.159 39.1204 193.733 40.8408C195.236 42.5091 195.983 44.6629 195.983 47.3071ZM191.923 47.3982C191.923 45.7788 191.574 44.3907 190.874 43.2287C190.053 41.8256 188.878 41.124 187.354 41.124C185.785 41.124 184.582 41.8256 183.763 43.2287C183.061 44.3907 182.712 45.8028 182.712 47.4712C182.712 49.0915 183.061 50.4837 183.763 51.6426C184.609 53.0458 185.79 53.7474 187.321 53.7474C188.819 53.7474 189.992 53.0308 190.84 51.6076C191.561 50.4176 191.923 49.0205 191.923 47.3982Z" fill="white"/>
<path fill-rule="evenodd" clip-rule="evenodd" d="M208.72 42.0708C208.332 41.9988 207.917 41.9617 207.484 41.9617C206.108 41.9617 205.041 42.4812 204.292 43.527C203.641 44.4478 203.315 45.6117 203.315 47.0169V56.2885H199.398V44.1825C199.398 42.1479 199.359 40.2914 199.284 38.619H202.696L202.839 42.0008H202.948C203.363 40.8388 204.013 39.901 204.906 39.1995C205.778 38.5679 206.721 38.2527 207.737 38.2527C208.099 38.2527 208.426 38.2787 208.716 38.3247L208.72 42.0708Z" fill="white"/>
<path fill-rule="evenodd" clip-rule="evenodd" d="M226.236 46.6165C226.236 47.32 226.19 47.9135 226.093 48.3979H214.343C214.387 50.1434 214.957 51.4804 216.048 52.4012C217.037 53.2229 218.318 53.6352 219.891 53.6352C221.63 53.6352 223.218 53.359 224.646 52.8005L225.259 55.5238C223.591 56.2534 221.621 56.6167 219.349 56.6167C216.615 56.6167 214.469 55.81 212.908 54.1997C211.35 52.5894 210.57 50.4236 210.57 47.7104C210.57 45.0482 211.295 42.8294 212.748 41.0599C214.27 39.1704 216.325 38.2256 218.912 38.2256C221.453 38.2256 223.376 39.1704 224.682 41.0599C225.716 42.5561 226.236 44.4127 226.236 46.6165ZM222.501 45.5986C222.529 44.4327 222.271 43.4288 221.741 42.5802C221.063 41.4863 220.02 40.9418 218.621 40.9418C217.341 40.9418 216.298 41.4732 215.504 42.5421C214.852 43.3908 214.463 44.4107 214.345 45.5946L222.501 45.5986Z" fill="white"/>
<path fill-rule="evenodd" clip-rule="evenodd" d="M81.5774 10.0856H86.2631C87.2116 10.0856 88.0433 10.1937 88.7582 10.4088C89.472 10.625 90.0911 10.9122 90.6163 11.2735C91.1414 11.6358 91.5778 12.0512 91.9252 12.5206C92.2737 12.989 92.5482 13.4703 92.7509 13.9647C92.9526 14.4592 93.0984 14.9536 93.1872 15.448C93.2751 15.9424 93.32 16.3987 93.32 16.8171C93.32 17.6798 93.1613 18.5135 92.8458 19.3181C92.5293 20.1228 92.061 20.8394 91.442 21.4669C90.8219 22.0944 90.0531 22.5978 89.1366 22.9781C88.22 23.3584 87.1607 23.5486 85.9595 23.5486H81.5774V10.0856ZM83.3985 21.8372H85.694C86.4647 21.8372 87.1956 21.7331 87.8845 21.5239C88.5735 21.3148 89.1775 21.0005 89.6967 20.5822C90.2149 20.1638 90.6262 19.6414 90.9298 19.0139C91.2333 18.3864 91.3851 17.6538 91.3851 16.8171C91.3851 16.3867 91.3152 15.8823 91.1764 15.3058C91.0366 14.7284 90.775 14.1809 90.3886 13.6605C90.0032 13.1411 89.469 12.6997 88.7861 12.3394C88.1032 11.9771 87.2176 11.797 86.1303 11.797H83.3985V21.8372Z" fill="white"/>
<path fill-rule="evenodd" clip-rule="evenodd" d="M94.6848 19.0419C94.6848 18.3833 94.8086 17.7678 95.0552 17.1974C95.3018 16.6269 95.6403 16.1265 96.0706 15.6951C96.5 15.2648 97.0062 14.9255 97.5883 14.6783C98.1694 14.4311 98.7954 14.307 99.4663 14.307C100.136 14.307 100.762 14.4311 101.343 14.6783C101.925 14.9255 102.432 15.2648 102.861 15.6951C103.291 16.1265 103.63 16.6269 103.876 17.1974C104.123 17.7678 104.247 18.3833 104.247 19.0419C104.247 19.7014 104.123 20.3189 103.876 20.8964C103.63 21.4729 103.291 21.9733 102.861 22.3986C102.432 22.823 101.925 23.1583 101.343 23.4055C100.762 23.6527 100.136 23.7768 99.4663 23.7768C98.7954 23.7768 98.1694 23.6527 97.5883 23.4055C97.0062 23.1583 96.5 22.823 96.0706 22.3986C95.6403 21.9733 95.3018 21.4729 95.0552 20.8964C94.8086 20.3189 94.6848 19.7014 94.6848 19.0419ZM96.507 19.0419C96.507 19.4983 96.5759 19.9196 96.7156 20.3069C96.8544 20.6942 97.0501 21.0235 97.3037 21.2947C97.5563 21.568 97.8658 21.7831 98.2333 21.9423C98.5997 22.1004 99.01 22.1795 99.4663 22.1795C99.9216 22.1795 100.332 22.1004 100.698 21.9423C101.066 21.7831 101.375 21.568 101.629 21.2947C101.881 21.0235 102.077 20.6942 102.216 20.3069C102.356 19.9196 102.425 19.4983 102.425 19.0419C102.425 18.5855 102.356 18.1642 102.216 17.7768C102.077 17.3915 101.881 17.0613 101.629 16.788C101.375 16.5168 101.066 16.3006 100.698 16.1425C100.332 15.9834 99.9216 15.9043 99.4663 15.9043C99.01 15.9043 98.5997 15.9834 98.2333 16.1425C97.8658 16.3006 97.5563 16.5168 97.3037 16.788C97.0501 17.0613 96.8544 17.3915 96.7156 17.7768C96.5759 18.1642 96.507 18.5855 96.507 19.0419Z" fill="white"/>
<path fill-rule="evenodd" clip-rule="evenodd" d="M104.93 14.5352H106.846L108.866 21.2667H108.904L111.057 14.5352H112.878L115.155 21.2667H115.193L117.109 14.5352H118.93L116.027 23.5485H114.301L111.92 16.817H111.881L109.71 23.5485H107.889L104.93 14.5352Z" fill="white"/>
<path fill-rule="evenodd" clip-rule="evenodd" d="M120.029 14.5352H121.737V15.9233H121.774C121.99 15.4409 122.363 15.0526 122.894 14.7544C123.426 14.4561 124.039 14.307 124.734 14.307C125.164 14.307 125.578 14.3731 125.976 14.5072C126.375 14.6403 126.723 14.8464 127.02 15.1247C127.317 15.4029 127.553 15.7622 127.731 16.1986C127.909 16.6369 127.998 17.1523 127.998 17.7488V23.5486H126.289V18.2242C126.289 17.8059 126.232 17.4476 126.119 17.1493C126.006 16.8521 125.853 16.6109 125.663 16.4277C125.474 16.2436 125.256 16.1105 125.009 16.0274C124.762 15.9453 124.507 15.9043 124.241 15.9043C123.887 15.9043 123.559 15.9614 123.255 16.0755C122.951 16.1906 122.685 16.3697 122.457 16.6169C122.23 16.8641 122.053 17.1784 121.926 17.5587C121.8 17.939 121.737 18.3894 121.737 18.9088V23.5486H120.029V14.5352Z" fill="white"/>
<path fill-rule="evenodd" clip-rule="evenodd" d="M130.331 9.17285H132.038V23.5486H130.331V9.17285Z" fill="white"/>
<path fill-rule="evenodd" clip-rule="evenodd" d="M133.935 19.0419C133.935 18.3833 134.058 17.7678 134.305 17.1974C134.551 16.6269 134.89 16.1265 135.32 15.6951C135.75 15.2648 136.256 14.9255 136.837 14.6783C137.419 14.4311 138.045 14.307 138.715 14.307C139.386 14.307 140.012 14.4311 140.594 14.6783C141.175 14.9255 141.681 15.2648 142.111 15.6951C142.541 16.1265 142.879 16.6269 143.126 17.1974C143.373 17.7678 143.495 18.3833 143.495 19.0419C143.495 19.7014 143.373 20.3189 143.126 20.8964C142.879 21.4729 142.541 21.9733 142.111 22.3986C141.681 22.823 141.175 23.1583 140.594 23.4055C140.012 23.6527 139.386 23.7768 138.715 23.7768C138.045 23.7768 137.419 23.6527 136.837 23.4055C136.256 23.1583 135.75 22.823 135.32 22.3986C134.89 21.9733 134.551 21.4729 134.305 20.8964C134.058 20.3189 133.935 19.7014 133.935 19.0419ZM135.756 19.0419C135.756 19.4983 135.825 19.9196 135.964 20.3069C136.104 20.6942 136.3 21.0235 136.552 21.2947C136.806 21.568 137.115 21.7831 137.483 21.9423C137.849 22.1004 138.26 22.1795 138.715 22.1795C139.17 22.1795 139.582 22.1004 139.949 21.9423C140.315 21.7831 140.625 21.568 140.878 21.2947C141.131 21.0235 141.327 20.6942 141.467 20.3069C141.605 19.9196 141.675 19.4983 141.675 19.0419C141.675 18.5855 141.605 18.1642 141.467 17.7768C141.327 17.3915 141.131 17.0613 140.878 16.788C140.625 16.5168 140.315 16.3006 139.949 16.1425C139.582 15.9834 139.17 15.9043 138.715 15.9043C138.26 15.9043 137.849 15.9834 137.483 16.1425C137.115 16.3006 136.806 16.5168 136.552 16.788C136.3 17.0613 136.104 17.3915 135.964 17.7768C135.825 18.1642 135.756 18.5855 135.756 19.0419Z" fill="white"/>
<path fill-rule="evenodd" clip-rule="evenodd" d="M145.298 15.6381C145.778 15.1937 146.334 14.8615 146.967 14.6403C147.599 14.4181 148.231 14.307 148.864 14.307C149.521 14.307 150.088 14.3901 150.562 14.5542C151.036 14.7193 151.425 14.9405 151.729 15.2198C152.032 15.499 152.257 15.8182 152.402 16.1805C152.547 16.5408 152.62 16.9191 152.62 17.3115V21.9132C152.62 22.2305 152.626 22.5217 152.638 22.788C152.651 23.0542 152.671 23.3084 152.696 23.5486H151.179C151.14 23.0922 151.122 22.6358 151.122 22.1795H151.084C150.704 22.7629 150.255 23.1753 149.737 23.4155C149.219 23.6557 148.618 23.7768 147.934 23.7768C147.517 23.7768 147.119 23.7197 146.739 23.6056C146.359 23.4915 146.028 23.3214 145.743 23.0922C145.458 22.864 145.234 22.5818 145.069 22.2455C144.905 21.9102 144.823 21.5209 144.823 21.0766C144.823 20.4931 144.952 20.0057 145.212 19.6124C145.471 19.22 145.825 18.8988 146.274 18.6516C146.724 18.4044 147.249 18.2282 147.85 18.1191C148.45 18.012 149.092 17.958 149.775 17.958H151.027V17.5777C151.027 17.3495 150.982 17.1213 150.893 16.8931C150.806 16.6649 150.672 16.4588 150.496 16.2746C150.318 16.0915 150.096 15.9453 149.832 15.8383C149.566 15.7302 149.25 15.6761 148.883 15.6761C148.555 15.6761 148.267 15.7082 148.019 15.7702C147.773 15.8353 147.548 15.9133 147.347 16.0094C147.144 16.1045 146.96 16.2156 146.796 16.3417C146.632 16.4688 146.474 16.5889 146.322 16.703L145.298 15.6381ZM150.116 19.213C149.711 19.213 149.297 19.236 148.873 19.2791C148.45 19.3241 148.063 19.4092 147.717 19.5363C147.369 19.6634 147.084 19.8405 146.862 20.0687C146.642 20.2969 146.531 20.5892 146.531 20.9434C146.531 21.4639 146.705 21.8372 147.053 22.0654C147.399 22.2936 147.871 22.4076 148.466 22.4076C148.934 22.4076 149.331 22.3286 149.661 22.1694C149.989 22.0113 150.255 21.8062 150.458 21.5519C150.659 21.2987 150.806 21.0165 150.893 20.7052C150.982 20.396 151.027 20.0877 151.027 19.7835V19.213H150.116Z" fill="white"/>
<path fill-rule="evenodd" clip-rule="evenodd" d="M163.738 23.5486H162.031V22.2556H161.993C161.662 22.737 161.211 23.1123 160.636 23.3775C160.06 23.6437 159.469 23.7768 158.862 23.7768C158.167 23.7768 157.538 23.6557 156.974 23.4155C156.411 23.1753 155.93 22.839 155.533 22.4077C155.133 21.9773 154.828 21.4759 154.612 20.9055C154.397 20.335 154.291 19.7145 154.291 19.0419C154.291 18.3704 154.397 17.7459 154.612 17.1694C154.828 16.5919 155.133 16.0915 155.533 15.6662C155.93 15.2418 156.411 14.9096 156.974 14.6684C157.538 14.4282 158.167 14.3071 158.862 14.3071C159.506 14.3071 160.115 14.4432 160.683 14.7164C161.252 14.9886 161.688 15.3589 161.993 15.8283H162.031V9.17285H163.738V23.5486ZM159.07 22.1795C159.525 22.1795 159.937 22.1004 160.303 21.9423C160.67 21.7832 160.98 21.568 161.233 21.2948C161.486 21.0236 161.682 20.6943 161.822 20.307C161.96 19.9197 162.031 19.4983 162.031 19.0419C162.031 18.5856 161.96 18.1642 161.822 17.7769C161.682 17.3916 161.486 17.0613 161.233 16.7881C160.98 16.5169 160.67 16.3007 160.303 16.1426C159.937 15.9834 159.525 15.9044 159.07 15.9044C158.615 15.9044 158.205 15.9834 157.838 16.1426C157.47 16.3007 157.161 16.5169 156.908 16.7881C156.655 17.0613 156.459 17.3916 156.319 17.7769C156.18 18.1642 156.111 18.5856 156.111 19.0419C156.111 19.4983 156.18 19.9197 156.319 20.307C156.459 20.6943 156.655 21.0236 156.908 21.2948C157.161 21.568 157.47 21.7832 157.838 21.9423C158.205 22.1004 158.615 22.1795 159.07 22.1795Z" fill="white"/>
<path fill-rule="evenodd" clip-rule="evenodd" d="M170.396 19.0419C170.396 18.3833 170.519 17.7678 170.766 17.1974C171.013 16.6269 171.351 16.1265 171.78 15.6951C172.211 15.2648 172.717 14.9255 173.298 14.6783C173.88 14.4311 174.506 14.307 175.176 14.307C175.847 14.307 176.473 14.4311 177.054 14.6783C177.636 14.9255 178.141 15.2648 178.572 15.6951C179.002 16.1265 179.34 16.6269 179.587 17.1974C179.834 17.7678 179.957 18.3833 179.957 19.0419C179.957 19.7014 179.834 20.3189 179.587 20.8964C179.34 21.4729 179.002 21.9733 178.572 22.3986C178.141 22.823 177.636 23.1583 177.054 23.4055C176.473 23.6527 175.847 23.7768 175.176 23.7768C174.506 23.7768 173.88 23.6527 173.298 23.4055C172.717 23.1583 172.211 22.823 171.78 22.3986C171.351 21.9733 171.013 21.4729 170.766 20.8964C170.519 20.3189 170.396 19.7014 170.396 19.0419ZM172.217 19.0419C172.217 19.4983 172.286 19.9196 172.425 20.3069C172.565 20.6942 172.761 21.0235 173.013 21.2947C173.267 21.568 173.576 21.7831 173.943 21.9423C174.31 22.1004 174.721 22.1795 175.176 22.1795C175.631 22.1795 176.043 22.1004 176.409 21.9423C176.776 21.7831 177.086 21.568 177.339 21.2947C177.592 21.0235 177.788 20.6942 177.928 20.3069C178.065 19.9196 178.136 19.4983 178.136 19.0419C178.136 18.5855 178.065 18.1642 177.928 17.7768C177.788 17.3915 177.592 17.0613 177.339 16.788C177.086 16.5168 176.776 16.3006 176.409 16.1425C176.043 15.9834 175.631 15.9043 175.176 15.9043C174.721 15.9043 174.31 15.9834 173.943 16.1425C173.576 16.3006 173.267 16.5168 173.013 16.788C172.761 17.0613 172.565 17.3915 172.425 17.7768C172.286 18.1642 172.217 18.5855 172.217 19.0419Z" fill="white"/>
<path fill-rule="evenodd" clip-rule="evenodd" d="M181.72 14.5352H183.427V15.9233H183.465C183.68 15.4409 184.053 15.0526 184.585 14.7544C185.116 14.4561 185.729 14.307 186.424 14.307C186.855 14.307 187.269 14.3731 187.666 14.5072C188.066 14.6403 188.413 14.8464 188.711 15.1247C189.007 15.4029 189.244 15.7622 189.422 16.1986C189.599 16.6369 189.688 17.1523 189.688 17.7488V23.5486H187.98V18.2242C187.98 17.8059 187.923 17.4476 187.809 17.1493C187.696 16.8521 187.544 16.6109 187.354 16.4277C187.165 16.2436 186.947 16.1105 186.7 16.0274C186.453 15.9453 186.198 15.9043 185.931 15.9043C185.578 15.9043 185.249 15.9614 184.946 16.0755C184.641 16.1906 184.377 16.3697 184.148 16.6169C183.92 16.8641 183.744 17.1784 183.618 17.5587C183.491 17.939 183.427 18.3894 183.427 18.9088V23.5486H181.72V14.5352Z" fill="white"/>
<path fill-rule="evenodd" clip-rule="evenodd" d="M201.602 16.0184H199.153V20.1067C199.153 20.3599 199.159 20.6102 199.172 20.8584C199.185 21.1056 199.232 21.3267 199.314 21.5239C199.398 21.7201 199.523 21.8782 199.695 21.9983C199.865 22.1194 200.115 22.1794 200.443 22.1794C200.646 22.1794 200.855 22.1604 201.069 22.1224C201.284 22.0844 201.48 22.0153 201.658 21.9132V23.4725C201.456 23.5866 201.193 23.6657 200.871 23.7097C200.548 23.7547 200.299 23.7767 200.121 23.7767C199.464 23.7767 198.955 23.6847 198.594 23.5005C198.234 23.3174 197.968 23.0792 197.798 22.7879C197.627 22.4967 197.526 22.1694 197.494 21.8091C197.462 21.4468 197.446 21.0825 197.446 20.7152V16.0184H195.474V14.5352H197.446V12.0061H199.153V14.5352H201.602V16.0184Z" fill="white"/>
<path fill-rule="evenodd" clip-rule="evenodd" d="M203.423 9.17285H205.13V15.9234H205.168C205.383 15.441 205.756 15.0527 206.287 14.7544C206.819 14.4562 207.432 14.3071 208.127 14.3071C208.557 14.3071 208.971 14.3731 209.37 14.5072C209.768 14.6403 210.116 14.8465 210.414 15.1247C210.71 15.403 210.947 15.7623 211.125 16.1986C211.302 16.637 211.39 17.1524 211.39 17.7489V23.5486H209.682V18.2243C209.682 17.8059 209.626 17.4476 209.511 17.1494C209.399 16.8521 209.247 16.6109 209.056 16.4278C208.867 16.2436 208.649 16.1105 208.402 16.0275C208.155 15.9454 207.9 15.9044 207.633 15.9044C207.28 15.9044 206.951 15.9614 206.648 16.0755C206.344 16.1906 206.079 16.3697 205.85 16.617C205.623 16.8642 205.446 17.1784 205.32 17.5587C205.193 17.939 205.13 18.3894 205.13 18.9088V23.5486H203.423V9.17285Z" fill="white"/>
<path fill-rule="evenodd" clip-rule="evenodd" d="M214.88 19.6694C214.88 20.0627 214.966 20.42 215.136 20.7433C215.307 21.0675 215.532 21.3428 215.809 21.571C216.088 21.7991 216.41 21.9773 216.778 22.1034C217.144 22.2305 217.524 22.2936 217.915 22.2936C218.447 22.2936 218.909 22.1694 219.3 21.9232C219.692 21.676 220.053 21.3498 220.381 20.9434L221.671 21.9323C220.723 23.1613 219.396 23.7768 217.688 23.7768C216.98 23.7768 216.338 23.6557 215.762 23.4155C215.186 23.1753 214.7 22.842 214.302 22.4167C213.903 21.9923 213.596 21.4919 213.381 20.9144C213.166 20.3379 213.059 19.7144 213.059 19.0419C213.059 18.3703 213.176 17.7458 213.41 17.1694C213.644 16.5919 213.966 16.0915 214.377 15.6661C214.788 15.2418 215.279 14.9095 215.847 14.6683C216.416 14.4281 217.036 14.307 217.706 14.307C218.503 14.307 219.177 14.4461 219.727 14.7253C220.277 15.0046 220.73 15.3689 221.083 15.8182C221.438 16.2696 221.693 16.776 221.852 17.3405C222.01 17.904 222.089 18.4784 222.089 19.0609V19.6694H214.88ZM220.268 18.3003C220.254 17.92 220.196 17.5707 220.088 17.2544C219.98 16.9382 219.819 16.6619 219.604 16.4277C219.389 16.1926 219.119 16.0094 218.798 15.8763C218.475 15.7422 218.099 15.6761 217.669 15.6761C217.251 15.6761 216.869 15.7552 216.521 15.9133C216.173 16.0725 215.878 16.2776 215.639 16.5318C215.399 16.785 215.211 17.0673 215.079 17.3785C214.947 17.6898 214.88 17.996 214.88 18.3003H220.268Z" fill="white"/>
</g>
<defs>
<clipPath id="clip0">
<rect x="25.233" y="9.14148" width="201.389" height="54.5635" fill="white"/>
</clipPath>
</defs>
</svg>
