<svg width="250" height="73" viewBox="0 0 250 73" fill="none" xmlns="http://www.w3.org/2000/svg">
<g clip-path="url(#clip0)">
<path fill-rule="evenodd" clip-rule="evenodd" d="M165.353 51.2392L163.886 52.6226C163.548 52.8084 163.211 53.0253 162.874 53.178C161.854 53.6401 160.818 53.7568 159.897 53.7568C158.916 53.7568 157.381 53.6936 155.814 52.5613C153.636 51.0281 152.684 48.3957 152.684 46.0999C152.684 41.3478 156.556 39.0179 159.714 39.0179C160.818 39.0179 161.953 39.2932 162.874 39.876C164.406 40.8886 164.803 42.2048 165.023 42.9091L157.81 45.8207L155.449 46.0036C156.213 49.8997 158.852 52.1653 161.768 52.1653C163.223 52.1653 164.305 51.6916 165.297 51.2013C165.297 51.2013 165.495 51.0972 165.353 51.2392ZM161.002 43.4899C161.588 43.2769 161.893 43.093 161.893 42.6659C161.893 41.4431 160.506 40.0287 158.852 40.0287C157.626 40.0287 155.325 40.982 155.325 44.2934C155.325 44.81 155.387 45.3606 155.418 45.9112L161.002 43.4899Z" fill="white"/>
<path fill-rule="evenodd" clip-rule="evenodd" d="M150.274 51.0019C150.274 52.1936 150.488 52.3784 151.494 52.4718C152.02 52.534 152.544 52.5613 153.062 52.6226L151.928 53.2977H146.521C147.23 52.3784 147.352 52.2869 147.352 51.6741V50.9902L147.34 32.7687H144.954L147.251 31.6626H151.638C150.688 32.2122 150.404 32.5478 150.281 33.6199L150.274 51.0019Z" fill="white"/>
<path fill-rule="evenodd" clip-rule="evenodd" d="M141.889 40.5218C142.593 41.0997 144.064 42.3274 144.064 44.6562C144.064 46.9268 142.783 47.9959 141.491 49.0085C141.095 49.4074 140.631 49.8403 140.631 50.5086C140.631 51.1866 141.095 51.5544 141.429 51.8287L142.537 52.6838C143.884 53.82 145.112 54.8619 145.112 56.9768C145.112 59.8611 142.32 62.7669 137.042 62.7669C132.597 62.7669 130.448 60.653 130.448 58.3844C130.448 57.2803 130.997 55.718 132.812 54.6469C134.714 53.4854 137.291 53.3297 138.67 53.2393C138.24 52.6838 137.748 52.1021 137.748 51.1516C137.748 50.6322 137.905 50.3228 138.056 49.957C137.72 49.9891 137.382 50.0222 137.074 50.0222C133.821 50.0222 131.981 47.597 131.981 45.2068C131.981 43.7973 132.625 42.234 133.946 41.0997C135.695 39.6619 137.781 39.4128 139.438 39.4128H145.761L143.795 40.5218H141.889ZM139.715 54.1274C139.464 54.0943 139.313 54.0943 139.01 54.0943C138.731 54.0943 137.074 54.1547 135.791 54.5846C135.111 54.8337 133.148 55.5662 133.148 57.7433C133.148 59.9156 135.268 61.4818 138.546 61.4818C141.491 61.4818 143.055 60.0712 143.055 58.1723C143.055 56.61 142.043 55.7851 139.715 54.1274ZM140.598 48.3042C141.307 47.597 141.368 46.6193 141.368 46.0639C141.368 43.8605 140.053 40.4265 137.502 40.4265C136.708 40.4265 135.845 40.8263 135.356 41.4431C134.837 42.0812 134.682 42.9091 134.682 43.7058C134.682 45.7584 135.88 49.1623 138.516 49.1623C139.284 49.1623 140.112 48.7887 140.598 48.3042Z" fill="white"/>
<path fill-rule="evenodd" clip-rule="evenodd" d="M122.87 53.6936C117.992 53.6936 115.384 49.8997 115.384 46.4647C115.384 42.4519 118.664 39.0179 123.329 39.0179C127.839 39.0179 130.664 42.5453 130.664 46.2488C130.664 49.8656 127.872 53.6936 122.87 53.6936ZM126.705 51.2139C127.447 50.2324 127.627 49.0086 127.627 47.815C127.627 45.1164 126.339 39.9684 122.536 39.9684C121.523 39.9684 120.505 40.3633 119.77 41.0083C118.572 42.0813 118.358 43.4286 118.358 44.7507C118.358 47.779 119.856 52.7733 123.574 52.7733C124.775 52.7733 125.999 52.1936 126.705 51.2139Z" fill="white"/>
<path fill-rule="evenodd" clip-rule="evenodd" d="M106.543 53.6936C101.665 53.6936 99.0603 49.8997 99.0603 46.4647C99.0603 42.4519 102.341 39.0179 107.005 39.0179C111.513 39.0179 114.334 42.5453 114.334 46.2488C114.334 49.8656 111.546 53.6936 106.543 53.6936ZM110.379 51.2139C111.115 50.2324 111.3 49.0086 111.3 47.815C111.3 45.1164 110.008 39.9684 106.208 39.9684C105.192 39.9684 104.184 40.3633 103.447 41.0083C102.247 42.0813 102.035 43.4286 102.035 44.7507C102.035 47.779 103.539 52.7733 107.251 52.7733C108.448 52.7733 109.671 52.1936 110.379 51.2139Z" fill="white"/>
<path fill-rule="evenodd" clip-rule="evenodd" d="M97.1108 52.6303L92.9976 53.5701C91.3305 53.8327 89.8348 54.0642 88.2495 54.0642C80.3163 54.0642 77.2947 48.2303 77.2947 43.665C77.2947 38.0889 81.5773 32.9204 88.9117 32.9204C90.4629 32.9204 91.9566 33.148 93.317 33.5177C95.4719 34.1238 96.4798 34.8689 97.1108 35.3057L94.7211 37.5733L93.7133 37.798L94.4319 36.654C93.4591 35.7046 91.6703 33.9535 88.2778 33.9535C83.74 33.9535 80.3163 37.3992 80.3163 42.4295C80.3163 47.8334 84.2259 52.9154 90.4931 52.9154C92.3354 52.9154 93.2839 52.5447 94.1437 52.2003V47.5688L89.8017 47.8013L92.1037 46.5659H98.1975L97.4525 47.2828C97.251 47.4541 97.2247 47.5114 97.1682 47.7401C97.138 48.0017 97.1108 48.8345 97.1108 49.1273V52.6303Z" fill="white"/>
<path fill-rule="evenodd" clip-rule="evenodd" d="M174.197 51.3696V59.1763H172.645V39.3127H174.197V41.5745C175.207 40.1133 177.055 38.9537 179.201 38.9537C183.048 38.9537 185.64 41.8702 185.64 46.4861C185.64 51.0719 183.048 54.0497 179.201 54.0497C177.174 54.0497 175.36 53.0068 174.197 51.3696ZM183.973 46.4861C183.973 43.0074 182.158 40.3536 178.939 40.3536C176.939 40.3536 175.028 41.9237 174.197 43.2915V49.6507C175.028 51.0213 176.939 52.6479 178.939 52.6479C182.158 52.6479 183.973 49.9717 183.973 46.4861Z" fill="white"/>
<path fill-rule="evenodd" clip-rule="evenodd" d="M187.76 33.828H189.311V53.6916H187.76V33.828Z" fill="white"/>
<path fill-rule="evenodd" clip-rule="evenodd" d="M206.724 57.8923C207.055 58.0401 207.622 58.1316 207.982 58.1316C208.931 58.1316 209.591 57.7434 210.185 56.3727L211.317 53.8114L205.203 39.3127H206.935L212.179 51.8774L217.372 39.3127H219.127L211.671 56.8543C210.898 58.6618 209.681 59.5305 208.008 59.5305C207.506 59.5305 206.845 59.441 206.458 59.3223L206.724 57.8923Z" fill="white"/>
<path fill-rule="evenodd" clip-rule="evenodd" d="M202.192 53.6488C202.087 53.1498 202.009 52.7111 201.953 52.3433C201.904 51.9776 201.878 51.603 201.878 51.2227C201.345 52.0029 200.592 52.6527 199.63 53.1644C198.666 53.679 197.75 53.931 196.494 53.931C194.983 53.931 193.809 53.5603 192.972 52.8064C192.136 52.0525 191.717 51.033 191.717 49.7421C191.717 48.4541 192.325 47.4074 193.538 46.6067C194.751 45.8032 196.319 45.4044 198.259 45.4044H201.878V43.6173C201.878 42.5881 201.526 41.7797 200.826 41.1921C200.122 40.6055 199.135 40.3079 197.854 40.3079C196.684 40.3079 195.736 40.5793 195.013 41.1085C194.296 41.6474 193.936 42.3157 193.936 43.1212H192.348L192.315 43.0443C192.257 41.9587 192.755 41.0053 193.812 40.1833C194.864 39.3613 196.244 38.9479 197.941 38.9479C199.633 38.9479 201.002 39.3545 202.035 40.1658C203.065 40.9703 203.583 42.1319 203.583 43.6504V50.7441C203.583 51.2528 203.606 51.7451 203.671 52.2247C203.736 52.7052 203.84 53.1848 203.979 53.6488H202.192ZM196.684 52.5194C198.002 52.5194 198.95 52.2247 199.919 51.6429C200.88 51.0641 201.534 50.3092 201.878 49.3958V46.6349H198.242C196.852 46.6349 195.702 46.9414 194.798 47.5611C193.891 48.1788 193.432 48.9269 193.432 49.7956C193.432 50.6147 193.723 51.2713 194.301 51.7684C194.882 52.2704 195.674 52.5194 196.684 52.5194Z" fill="white"/>
<path fill-rule="evenodd" clip-rule="evenodd" d="M46.2317 34.8932L26.2443 14.9274C26.4069 14.8769 26.5812 14.8516 26.7662 14.8516C27.1684 14.8516 27.6173 14.9741 28.0905 15.2339L52.4911 28.6371L46.2317 34.8932ZM46.2317 34.8932L52.493 28.6371L60.8538 33.2297C62.5432 34.1578 62.5432 35.6724 60.8538 36.6044L52.5242 41.1794L46.2317 34.8932ZM26.2433 14.9274C25.5013 15.1599 25.0203 15.9109 25.0203 17.0462L25.0251 52.7879C25.0251 53.9095 25.4906 54.6498 26.2121 54.8959C26.3835 54.9543 26.5695 54.9845 26.7672 54.9845C27.1684 54.9845 27.6173 54.8609 28.0905 54.6012L52.5213 41.1794L46.2317 34.8961L26.2433 14.9274Z" fill="#FBFBFB"/>
<path fill-rule="evenodd" clip-rule="evenodd" d="M78.7097 11.0801H83.2796C84.2047 11.0801 85.0158 11.1851 85.713 11.3943C86.4093 11.6044 87.014 11.8836 87.5252 12.2348C88.0374 12.5869 88.4629 12.9907 88.8028 13.4469C89.1416 13.9022 89.4094 14.3701 89.6071 14.8507C89.8038 15.3312 89.946 15.8118 90.0326 16.2923C90.1193 16.7729 90.1621 17.2165 90.1621 17.6231C90.1621 18.4617 90.0073 19.272 89.6996 20.0542C89.3909 20.8363 88.9342 21.5328 88.3305 22.1428C87.7258 22.7527 86.977 23.242 86.0831 23.6117C85.1882 23.9814 84.155 24.1662 82.9836 24.1662H78.7097V11.0801ZM80.4859 22.5027H82.7245C83.4763 22.5027 84.1891 22.4015 84.862 22.1982C85.5338 21.9949 86.123 21.6894 86.6284 21.2828C87.1337 20.8762 87.5349 20.3684 87.831 19.7584C88.127 19.1485 88.275 18.4364 88.275 17.6231C88.275 17.2048 88.2068 16.7145 88.0715 16.1542C87.9351 15.5929 87.68 15.0608 87.3032 14.5549C86.9273 14.05 86.4063 13.621 85.7403 13.2708C85.0742 12.9187 84.2105 12.7436 83.1501 12.7436H80.4859V22.5027Z" fill="white"/>
<path fill-rule="evenodd" clip-rule="evenodd" d="M91.4941 19.7857C91.4941 19.1456 91.6139 18.5473 91.8544 17.9928C92.095 17.4383 92.4251 16.9519 92.8447 16.5326C93.2635 16.1143 93.7572 15.7845 94.3249 15.5443C94.8916 15.304 95.5021 15.1833 96.1565 15.1833C96.8099 15.1833 97.4205 15.304 97.9882 15.5443C98.5549 15.7845 99.0486 16.1143 99.4683 16.5326C99.887 16.9519 100.217 17.4383 100.458 17.9928C100.698 18.5473 100.819 19.1456 100.819 19.7857C100.819 20.4267 100.698 21.027 100.458 21.5883C100.217 22.1486 99.887 22.635 99.4683 23.0484C99.0486 23.4609 98.5549 23.7868 97.9882 24.0271C97.4205 24.2674 96.8099 24.388 96.1565 24.388C95.5021 24.388 94.8916 24.2674 94.3249 24.0271C93.7572 23.7868 93.2635 23.4609 92.8447 23.0484C92.4251 22.635 92.095 22.1486 91.8544 21.5883C91.6139 21.027 91.4941 20.4267 91.4941 19.7857ZM93.2703 19.7857C93.2703 20.2293 93.3375 20.6388 93.4738 21.0153C93.6092 21.3918 93.8 21.7118 94.0473 21.9754C94.2937 22.241 94.5956 22.4502 94.9539 22.6048C95.3113 22.7585 95.7125 22.8354 96.1565 22.8354C96.6006 22.8354 97.0008 22.7585 97.3591 22.6048C97.7165 22.4502 98.0184 22.241 98.2657 21.9754C98.5121 21.7118 98.7029 21.3918 98.8392 21.0153C98.9746 20.6388 99.0428 20.2293 99.0428 19.7857C99.0428 19.3421 98.9746 18.9325 98.8392 18.556C98.7029 18.1815 98.5121 17.8605 98.2657 17.5949C98.0184 17.3313 97.7165 17.1212 97.3591 16.9675C97.0008 16.8128 96.6006 16.7359 96.1565 16.7359C95.7125 16.7359 95.3113 16.8128 94.9539 16.9675C94.5956 17.1212 94.2937 17.3313 94.0473 17.5949C93.8 17.8605 93.6092 18.1815 93.4738 18.556C93.3375 18.9325 93.2703 19.3421 93.2703 19.7857Z" fill="white"/>
<path fill-rule="evenodd" clip-rule="evenodd" d="M101.485 15.4052H103.354L105.323 21.9482H105.36L107.461 15.4052H109.237L111.457 21.9482H111.494L113.363 15.4052H115.139L112.308 24.1662H110.625L108.302 17.6231H108.264L106.147 24.1662H104.371L101.485 15.4052Z" fill="white"/>
<path fill-rule="evenodd" clip-rule="evenodd" d="M116.212 15.4051H117.876V16.7544H117.914C118.124 16.2855 118.487 15.9081 119.006 15.6182C119.524 15.3283 120.122 15.1833 120.8 15.1833C121.219 15.1833 121.623 15.2476 122.012 15.3779C122.4 15.5073 122.74 15.7077 123.03 15.9781C123.319 16.2486 123.55 16.5978 123.723 17.0219C123.896 17.448 123.983 17.949 123.983 18.5288V24.1662H122.317V18.9909C122.317 18.5843 122.261 18.236 122.15 17.9461C122.04 17.6572 121.892 17.4227 121.706 17.2447C121.522 17.0657 121.309 16.9363 121.068 16.8556C120.828 16.7758 120.579 16.7359 120.319 16.7359C119.974 16.7359 119.653 16.7914 119.357 16.9023C119.06 17.0142 118.802 17.1883 118.579 17.4286C118.358 17.6689 118.185 17.9743 118.061 18.344C117.939 18.7136 117.876 19.1514 117.876 19.6563V24.1662H116.212V15.4051Z" fill="white"/>
<path fill-rule="evenodd" clip-rule="evenodd" d="M126.259 10.1929H127.924V24.1662H126.259V10.1929Z" fill="white"/>
<path fill-rule="evenodd" clip-rule="evenodd" d="M129.774 19.7857C129.774 19.1456 129.893 18.5473 130.134 17.9928C130.375 17.4383 130.705 16.9519 131.124 16.5326C131.544 16.1143 132.037 15.7845 132.604 15.5443C133.171 15.304 133.783 15.1833 134.435 15.1833C135.089 15.1833 135.7 15.304 136.268 15.5443C136.834 15.7845 137.328 16.1143 137.748 16.5326C138.167 16.9519 138.497 17.4383 138.737 17.9928C138.978 18.5473 139.097 19.1456 139.097 19.7857C139.097 20.4267 138.978 21.027 138.737 21.5883C138.497 22.1486 138.167 22.635 137.748 23.0484C137.328 23.4609 136.834 23.7868 136.268 24.0271C135.7 24.2674 135.089 24.388 134.435 24.388C133.783 24.388 133.171 24.2674 132.604 24.0271C132.037 23.7868 131.544 23.4609 131.124 23.0484C130.705 22.635 130.375 22.1486 130.134 21.5883C129.893 21.027 129.774 20.4267 129.774 19.7857ZM131.55 19.7857C131.55 20.2293 131.617 20.6388 131.752 21.0153C131.889 21.3918 132.08 21.7118 132.326 21.9754C132.573 22.241 132.875 22.4502 133.233 22.6048C133.591 22.7585 133.991 22.8354 134.435 22.8354C134.879 22.8354 135.281 22.7585 135.639 22.6048C135.996 22.4502 136.298 22.241 136.544 21.9754C136.792 21.7118 136.983 21.3918 137.119 21.0153C137.254 20.6388 137.322 20.2293 137.322 19.7857C137.322 19.3421 137.254 18.9325 137.119 18.556C136.983 18.1815 136.792 17.8605 136.544 17.5949C136.298 17.3313 135.996 17.1212 135.639 16.9675C135.281 16.8128 134.879 16.7359 134.435 16.7359C133.991 16.7359 133.591 16.8128 133.233 16.9675C132.875 17.1212 132.573 17.3313 132.326 17.5949C132.08 17.8605 131.889 18.1815 131.752 18.556C131.617 18.9325 131.55 19.3421 131.55 19.7857Z" fill="white"/>
<path fill-rule="evenodd" clip-rule="evenodd" d="M140.855 16.4772C141.324 16.0453 141.866 15.7223 142.483 15.5073C143.1 15.2913 143.717 15.1833 144.333 15.1833C144.975 15.1833 145.527 15.2641 145.99 15.4236C146.451 15.5841 146.831 15.7991 147.128 16.0705C147.423 16.342 147.642 16.6523 147.783 17.0044C147.926 17.3546 147.997 17.7224 147.997 18.1037V22.5766C147.997 22.885 148.003 23.1681 148.015 23.4269C148.027 23.6856 148.046 23.9327 148.071 24.1662H146.591C146.554 23.7226 146.535 23.279 146.535 22.8354H146.498C146.128 23.4025 145.69 23.8033 145.184 24.0368C144.679 24.2703 144.093 24.388 143.427 24.388C143.02 24.388 142.631 24.3325 142.261 24.2216C141.891 24.1107 141.568 23.9454 141.289 23.7226C141.012 23.5008 140.794 23.2265 140.633 22.8996C140.473 22.5737 140.394 22.1953 140.394 21.7634C140.394 21.1962 140.518 20.7225 140.771 20.3402C141.025 19.9588 141.369 19.6466 141.808 19.4063C142.246 19.166 142.758 18.9948 143.344 18.8887C143.929 18.7847 144.555 18.7321 145.221 18.7321H146.443V18.3625C146.443 18.1407 146.4 17.9189 146.313 17.6971C146.227 17.4753 146.097 17.2749 145.925 17.0959C145.751 16.9179 145.536 16.7758 145.277 16.6717C145.019 16.5667 144.709 16.5141 144.352 16.5141C144.032 16.5141 143.751 16.5453 143.511 16.6056C143.27 16.6688 143.05 16.7447 142.853 16.8381C142.657 16.9305 142.476 17.0385 142.317 17.1611C142.156 17.2846 142.002 17.4013 141.855 17.5122L140.855 16.4772ZM145.554 19.952C145.159 19.952 144.756 19.9744 144.342 20.0162C143.929 20.06 143.553 20.1427 143.215 20.2662C142.875 20.3898 142.597 20.562 142.382 20.7838C142.166 21.0056 142.059 21.2896 142.059 21.634C142.059 22.1398 142.227 22.5027 142.567 22.7245C142.906 22.9463 143.365 23.0572 143.945 23.0572C144.402 23.0572 144.789 22.9803 145.11 22.8257C145.431 22.672 145.69 22.4725 145.888 22.2255C146.084 21.9793 146.227 21.705 146.313 21.4025C146.4 21.1019 146.443 20.8022 146.443 20.5065V19.952H145.554Z" fill="white"/>
<path fill-rule="evenodd" clip-rule="evenodd" d="M158.839 24.1662H157.174V22.9093H157.137C156.816 23.3772 156.376 23.742 155.815 23.9998C155.252 24.2586 154.677 24.388 154.084 24.388C153.406 24.388 152.792 24.2703 152.243 24.0368C151.694 23.8033 151.226 23.4765 150.837 23.0572C150.449 22.6389 150.15 22.1515 149.939 21.597C149.73 21.0425 149.626 20.4394 149.626 19.7857C149.626 19.1329 149.73 18.5259 149.939 17.9655C150.15 17.4042 150.449 16.9178 150.837 16.5044C151.226 16.0919 151.694 15.769 152.243 15.5345C152.792 15.301 153.406 15.1833 154.084 15.1833C154.714 15.1833 155.306 15.3156 155.86 15.5812C156.416 15.8458 156.84 16.2058 157.137 16.662H157.174V10.1929H158.839V24.1662ZM154.287 22.8354C154.731 22.8354 155.132 22.7585 155.49 22.6048C155.848 22.4502 156.15 22.241 156.396 21.9754C156.644 21.7118 156.834 21.3918 156.971 21.0153C157.106 20.6388 157.174 20.2293 157.174 19.7857C157.174 19.3421 157.106 18.9325 156.971 18.556C156.834 18.1815 156.644 17.8605 156.396 17.5949C156.15 17.3313 155.848 17.1212 155.49 16.9675C155.132 16.8128 154.731 16.7359 154.287 16.7359C153.843 16.7359 153.443 16.8128 153.086 16.9675C152.727 17.1212 152.425 17.3313 152.178 17.5949C151.932 17.8605 151.741 18.1815 151.604 18.556C151.469 18.9325 151.401 19.3421 151.401 19.7857C151.401 20.2293 151.469 20.6388 151.604 21.0153C151.741 21.3918 151.932 21.7118 152.178 21.9754C152.425 22.241 152.727 22.4502 153.086 22.6048C153.443 22.7585 153.843 22.8354 154.287 22.8354Z" fill="white"/>
<path fill-rule="evenodd" clip-rule="evenodd" d="M165.333 19.7857C165.333 19.1456 165.453 18.5473 165.694 17.9928C165.934 17.4383 166.264 16.9519 166.684 16.5326C167.103 16.1143 167.597 15.7845 168.163 15.5443C168.731 15.304 169.342 15.1833 169.995 15.1833C170.649 15.1833 171.26 15.304 171.828 15.5443C172.394 15.7845 172.888 16.1143 173.307 16.5326C173.726 16.9519 174.056 17.4383 174.297 17.9928C174.538 18.5473 174.657 19.1456 174.657 19.7857C174.657 20.4267 174.538 21.027 174.297 21.5883C174.056 22.1486 173.726 22.635 173.307 23.0484C172.888 23.4609 172.394 23.7868 171.828 24.0271C171.26 24.2674 170.649 24.388 169.995 24.388C169.342 24.388 168.731 24.2674 168.163 24.0271C167.597 23.7868 167.103 23.4609 166.684 23.0484C166.264 22.635 165.934 22.1486 165.694 21.5883C165.453 21.027 165.333 20.4267 165.333 19.7857ZM167.109 19.7857C167.109 20.2293 167.176 20.6388 167.312 21.0153C167.449 21.3918 167.639 21.7118 167.886 21.9754C168.133 22.241 168.434 22.4502 168.793 22.6048C169.151 22.7585 169.551 22.8354 169.995 22.8354C170.439 22.8354 170.84 22.7585 171.197 22.6048C171.555 22.4502 171.858 22.241 172.104 21.9754C172.351 21.7118 172.542 21.3918 172.679 21.0153C172.813 20.6388 172.882 20.2293 172.882 19.7857C172.882 19.3421 172.813 18.9325 172.679 18.556C172.542 18.1815 172.351 17.8605 172.104 17.5949C171.858 17.3313 171.555 17.1212 171.197 16.9675C170.84 16.8128 170.439 16.7359 169.995 16.7359C169.551 16.7359 169.151 16.8128 168.793 16.9675C168.434 17.1212 168.133 17.3313 167.886 17.5949C167.639 17.8605 167.449 18.1815 167.312 18.556C167.176 18.9325 167.109 19.3421 167.109 19.7857Z" fill="white"/>
<path fill-rule="evenodd" clip-rule="evenodd" d="M176.378 15.4051H178.043V16.7544H178.08C178.289 16.2855 178.654 15.9081 179.172 15.6182C179.69 15.3283 180.288 15.1833 180.966 15.1833C181.385 15.1833 181.789 15.2476 182.178 15.3779C182.566 15.5073 182.906 15.7077 183.196 15.9781C183.484 16.2486 183.716 16.5978 183.89 17.0219C184.062 17.448 184.149 17.949 184.149 18.5288V24.1662H182.482V18.9909C182.482 18.5843 182.428 18.236 182.316 17.9461C182.206 17.6572 182.058 17.4227 181.872 17.2447C181.688 17.0657 181.475 16.9363 181.234 16.8556C180.994 16.7758 180.744 16.7359 180.484 16.7359C180.14 16.7359 179.819 16.7914 179.523 16.9023C179.226 17.0142 178.968 17.1883 178.745 17.4286C178.524 17.6689 178.351 17.9743 178.228 18.344C178.104 18.7136 178.043 19.1514 178.043 19.6563V24.1662H176.378V15.4051Z" fill="white"/>
</g>
<rect x="1" y="1" width="248" height="70.1925" rx="9" stroke="white" stroke-width="2"/>
<defs>
<clipPath id="clip0">
<rect x="24.9291" y="10.1251" width="194.296" height="53.0303" fill="white"/>
</clipPath>
</defs>
</svg>
